<svg xmlns="http://www.w3.org/2000/svg" viewBox="0 0 544.16 544.16"><defs><style>.cls-1{fill:#e2579a;}.cls-2{fill:#ecf2e4;}</style></defs><g id="Capa_2" data-name="Capa 2"><g id="PNG"><g id="ECOX_AURA_ICONO_4" data-name="ECOX AURA_ICONO 4"><circle class="cls-1" cx="272.08" cy="272.08" r="272.08"/><path class="cls-2" d="M212.82,287.16c-4.64-11.79-13.42-18.77-25.38-20.18s-22.8,2.87-31.07,12.42a10,10,0,0,0,.95,13.71,10.18,10.18,0,0,0,13.78.25c2.67-2.29,5.17-4.89,7.59-7.4l.57-.61a3.46,3.46,0,0,1,2.4-1.31h0a3.32,3.32,0,0,1,2.32,1.24c4.25,4.36,8,8.12,11.51,11.51,1.71,1.66,1.73,3.25.06,5.17A23.39,23.39,0,0,0,190.34,313a60.55,60.55,0,0,0,.19,26.28c5.27,22,18.06,36.36,38,42.81,20.41,6.61,39,2.28,55.11-12.87,6.31-5.92,11.32-11,15.78-16.08a96.41,96.41,0,0,0,23.16-48.72c-1.37.07-2.73.2-4.12.2a79,79,0,0,1-79-79,81,81,0,0,1,.57-9.14c-1.28-4.42-4.54-7.23-9-7.47a9.84,9.84,0,0,0-7.15,2.63,12.08,12.08,0,0,0-3.77,8.46,100,100,0,0,0,11.71,51.5c4.77,8.9,7.13,17.77,6.85,25.64.16,15.22-4.27,27.56-13.94,38.84-1.09,1.27-2,1.84-2.93,1.86h0a4,4,0,0,1-2.81-1.61c-3.93-4.24-7.26-7.56-10.46-10.43-2.66-2.38-2.79-4.17-.53-7.07C215.62,309.09,217.25,298.41,212.82,287.16Z"/><path class="cls-2" d="M232.09,110.58a166.3,166.3,0,0,0-61.44,29.6c-2.43,1.84-3.44,3.46-1.86,6.75,1.85,3.85,3.37,7.94,4.83,11.9.4,1.08.8,2.15,1.21,3.23a108.63,108.63,0,0,0,23.57,37.55c1.11,1.14,1.87,1.6,2.53,1.57s1.37-.62,2.33-1.91a33.52,33.52,0,0,1,42.26-10.34,4,4,0,0,0,2.79.62,78.9,78.9,0,0,1,63.38-42.47c2.42-.28,4.87-.51,7.39-.62h0a73.06,73.06,0,0,1,15.17,1.62,78.08,78.08,0,0,1,49.81,32.72,77.17,77.17,0,0,1,12.51,56.7c-.1.6-.28,1.14-.39,1.73A78.38,78.38,0,0,1,386.88,265c-.14.24-.29.47-.43.7A79.16,79.16,0,0,1,348,298.91a5,5,0,0,0-.77,2.24,127.32,127.32,0,0,1-15.42,47.61c-8.12,14.43-19.67,26.16-31.8,37.9a78.64,78.64,0,0,1-88.78,14.23,80.63,80.63,0,0,1-34-31.35,85.48,85.48,0,0,1-11.81-46.68c.08-2.23-.52-3-2.44-3.11-.64-.05-1.28-.14-1.9-.24-.46-.07-.93-.14-1.4-.18-8.41-.86-16.48-5.58-22.14-13s-8.28-16.75-6.89-25.31c1.69-10.46,7.39-19,17.41-26.22,14.38-10.32,30-13.91,46.35-10.67,1.43.28,2.22.24,2.65-.12s.61-1.18.58-2.78c-.15-6.82-1.38-14.36-9.36-18.6a1.8,1.8,0,0,1-.44-.37l-.17-.16c-17-15.31-29.27-34.25-37.41-57.9-.57-1.67-1.07-3.11-1.54-3.19h0c-.48,0-1.44,1.15-2.54,2.46C112.42,203.72,99.71,250,108.31,301.17c6.45,38.38,25,71,55.12,96.86,33.1,28.44,72.13,42,116,40.31a162.4,162.4,0,0,0,44.16-7.87c74.68-24.36,122.56-98.79,113.86-177A163.5,163.5,0,0,0,417,190.38C379.72,124.77,305.41,92.7,232.09,110.58Z"/><path class="cls-2" d="M295.42,274.26a9,9,0,0,1,1.23.78,54,54,0,1,0-32.17-49.34c0,1.66.1,3.3.25,4.92a49.65,49.65,0,0,0,.85,5.26C269.38,253.42,279.42,266.33,295.42,274.26Z"/></g></g></g></svg>